<?xml version="1.0" encoding="utf-8"?>
<!-- Generator: Adobe Illustrator 15.0.2, SVG Export Plug-In . SVG Version: 6.00 Build 0)  -->
<!DOCTYPE svg PUBLIC "-//W3C//DTD SVG 1.1//EN" "http://www.w3.org/Graphics/SVG/1.1/DTD/svg11.dtd">
<svg version="1.1" id="Layer_1" xmlns="http://www.w3.org/2000/svg" xmlns:xlink="http://www.w3.org/1999/xlink" x="0px" y="0px"
	 width="512px" height="704px" viewBox="0 0 512 704" enable-background="new 0 0 512 704" xml:space="preserve">
<path fill="#FFFFFF" d="M256,96V0L128,128l128,128v-96c106.078,0,192,85.922,192,192c0,32.484-8.156,62.875-22.25,89.75l46.719,46.734
	C497.281,448.797,512,402.25,512,352C512,210.562,397.438,96,256,96z M256,544c-106.078,0-192-85.922-192-192
	c0-32.484,8.156-62.883,22.242-89.758l-46.719-46.727C14.719,255.203,0,301.758,0,352c0,141.438,114.562,256,256,256v96l128-128
	L256,448V544z"/>
</svg>
